<svg width="92" height="73" viewBox="0 0 92 73" fill="none" xmlns="http://www.w3.org/2000/svg">
<g clip-path="url(#clip0_1516_93)">
<path d="M19.1087 0C13.8593 0 9.97481 4.57502 10.1487 9.53652C10.3159 14.303 10.0988 20.4769 8.53803 25.5114C6.97259 30.5605 4.32472 33.7589 0 34.1697V38.8059C4.32472 39.2167 6.97259 42.4151 8.53803 47.4647C10.0988 52.4992 10.3159 58.6723 10.1487 63.4391C9.97481 68.3999 13.8593 72.9757 19.1094 72.9757H72.8981C78.1479 72.9757 82.0313 68.4006 81.8574 63.4391C81.6906 58.6727 81.9073 52.4992 83.4681 47.4647C85.0346 42.4155 87.6753 39.2164 92 38.8059V34.1697C87.6753 33.7589 85.0346 30.5605 83.4684 25.5114C81.9073 20.4776 81.6906 14.3033 81.8574 9.53652C82.0313 4.57574 78.1479 0 72.8981 0H19.108H19.1087ZM62.3731 44.9211C62.3731 51.7531 57.2556 55.8962 48.7629 55.8962H34.3052C33.8918 55.896 33.4953 55.7323 33.2029 55.4412C32.9106 55.15 32.7463 54.7552 32.7463 54.3435V18.6322C32.7463 18.2203 32.9105 17.8254 33.2029 17.5341C33.4954 17.2429 33.892 17.0792 34.3056 17.0791H48.6802C55.7617 17.0791 60.4091 20.8991 60.4091 26.7634C60.4091 30.8797 57.2826 34.5648 53.2996 35.21V35.425C58.7222 36.0173 62.3731 39.7564 62.3731 44.9211ZM47.1859 22.0013H38.943V33.5954H45.8861C51.253 33.5954 54.2128 31.4433 54.2128 27.5965C54.2128 23.992 51.6673 22.0013 47.1859 22.0013ZM38.9433 38.1958V50.9726H47.49C53.0775 50.9726 56.0381 48.74 56.0381 44.544C56.0381 40.3472 52.9952 38.1951 47.1306 38.1951H38.9433V38.1958Z" fill="#7E13F8"/>
</g>
<defs>
<clipPath id="clip0_1516_93">
<rect width="92" height="73" fill="white"/>
</clipPath>
</defs>
</svg>
