<svg width="92" height="92" viewBox="0 0 92 92" fill="none" xmlns="http://www.w3.org/2000/svg">
<path d="M5.75 5.75H86.25V86.25H5.75V5.75Z" fill="#F5DE19"/>
<path d="M66.5398 72.3899C67.2257 73.7831 68.2913 74.9542 69.6139 75.768C70.9364 76.5819 72.462 77.0055 74.0148 76.9899C77.1486 76.9899 79.1525 75.423 79.1525 73.2524C79.1525 70.6649 77.094 69.7392 73.644 68.2298L71.7522 67.419C66.2897 65.0932 62.6672 62.1808 62.6672 56.0225C62.6672 50.3502 66.9797 46.029 73.7446 46.029C75.9345 45.8709 78.1225 46.361 80.0357 47.4383C81.9488 48.5155 83.5025 50.1322 84.5028 52.0867L78.589 55.8673C78.2038 54.8982 77.5331 54.0691 76.6659 53.4899C75.7986 52.9107 74.7758 52.6088 73.7331 52.6243C73.2782 52.5788 72.8187 52.6285 72.3841 52.7703C71.9494 52.9121 71.549 53.1429 71.2085 53.448C70.868 53.7531 70.5948 54.1258 70.4062 54.5423C70.2177 54.9589 70.118 55.4101 70.1135 55.8673C70.1135 58.1357 71.5193 59.0557 74.7652 60.4673L76.657 61.278C83.0855 64.0352 86.7195 66.844 86.7195 73.1604C86.7195 79.9713 81.3691 83.703 74.1845 83.703C71.3851 83.8814 68.5939 83.2458 66.1477 81.873C63.7016 80.5002 61.705 78.4488 60.3988 75.9664L66.5398 72.3899ZM39.8167 73.0454C41.0041 75.1528 42.0851 76.9353 44.6841 76.9353C47.1681 76.9353 48.7378 75.9635 48.7378 72.1829V46.4603H56.302V72.2835C56.302 80.115 51.702 83.68 45.0061 83.68C42.6392 83.8094 40.2886 83.2196 38.2633 81.9881C36.2379 80.7565 34.6327 78.941 33.6584 76.78L39.8167 73.0454Z" fill="black"/>
</svg>
