<svg width="96" height="96" viewBox="0 0 96 96" fill="none" xmlns="http://www.w3.org/2000/svg">
<path d="M89.94 24.993C89.9746 25.1101 89.9947 25.231 90 25.353V43.386C90.0014 43.619 89.9396 43.848 89.8213 44.0487C89.703 44.2494 89.5325 44.4144 89.328 44.526L73.749 53.226V70.5C73.7504 70.733 73.6886 70.962 73.5703 71.1627C73.452 71.3634 73.2815 71.5284 73.077 71.64L40.548 89.835L40.302 89.925C40.272 89.925 40.242 89.955 40.212 89.955C39.9803 90.011 39.7387 90.011 39.507 89.955C39.477 89.955 39.447 89.925 39.417 89.925C39.387 89.925 39.264 89.865 39.204 89.835L6.702 71.652C6.4922 71.5409 6.31626 71.3752 6.19272 71.1725C6.06917 70.9697 6.0026 70.7374 6 70.5V16.413C6.00527 16.291 6.02542 16.1701 6.06 16.053C6.06 16.023 6.093 15.993 6.123 15.933C6.153 15.873 6.183 15.783 6.213 15.723C6.243 15.663 6.276 15.633 6.306 15.603C6.32926 15.5408 6.37252 15.488 6.429 15.453C6.459 15.423 6.519 15.393 6.549 15.363C6.579 15.333 6.642 15.303 6.672 15.273L22.923 6.17999C23.1275 6.06262 23.3592 6.00085 23.595 6.00085C23.8308 6.00085 24.0625 6.06262 24.267 6.17999L40.515 15.273C40.5722 15.3044 40.6239 15.3449 40.668 15.393C40.701 15.423 40.761 15.453 40.791 15.483C40.8399 15.526 40.8814 15.5767 40.914 15.633C40.9537 15.6647 40.9846 15.706 41.004 15.753C41.0416 15.8199 41.0728 15.8902 41.097 15.963C41.097 15.993 41.127 16.023 41.157 16.083C41.1903 16.1903 41.2114 16.301 41.22 16.413V50.199L54.75 42.6V25.353C54.7501 25.24 54.7715 25.1281 54.813 25.023C54.813 24.993 54.843 24.963 54.873 24.903C54.903 24.843 54.933 24.753 54.963 24.693C54.993 24.633 55.026 24.603 55.056 24.573C55.0793 24.5108 55.1225 24.458 55.179 24.423C55.209 24.393 55.269 24.363 55.299 24.333C55.329 24.303 55.392 24.243 55.452 24.213L71.7 15.123C71.9045 15.0056 72.1362 14.9439 72.372 14.9439C72.6078 14.9439 72.8395 15.0056 73.044 15.123L89.295 24.213C89.3522 24.2444 89.4039 24.2849 89.448 24.333C89.478 24.363 89.538 24.393 89.568 24.423C89.6169 24.466 89.6584 24.5167 89.691 24.573C89.7318 24.6044 89.7638 24.6457 89.784 24.693L89.874 24.903C89.907 24.933 89.94 24.963 89.94 24.993ZM87.282 42.636V27.636L81.6 30.813L73.749 35.226V50.226L87.282 42.636ZM71.031 69.762V54.762L63.3 59.049L41.22 71.292V86.445C41.22 86.415 71.031 69.762 71.031 69.762ZM8.718 18.693V69.762L38.532 86.445V71.292L22.953 62.739C22.893 62.679 22.83 62.649 22.8 62.589C22.77 62.529 22.707 62.529 22.677 62.499C22.647 62.469 22.617 62.409 22.557 62.349C22.497 62.289 22.494 62.259 22.464 62.229C22.4373 62.1819 22.4171 62.1315 22.404 62.079C22.371 62.019 22.341 61.989 22.341 61.929C22.3169 61.8722 22.3066 61.8105 22.311 61.749C22.311 61.689 22.281 61.659 22.281 61.599V26.253L14.4 21.873L8.718 18.693ZM23.625 8.81999L10.062 16.413L23.595 23.973L37.125 16.383L23.625 8.81999ZM30.651 56.1L38.499 51.72V18.693L32.82 21.873L24.969 26.253V59.289L30.651 56.1ZM72.375 17.763L58.845 25.353L72.375 32.916L85.908 25.323C85.938 25.353 72.375 17.763 72.375 17.763ZM71.031 35.196L63.18 30.783L57.501 27.6V42.6L65.349 46.98L71.031 50.163V35.196ZM39.876 69L59.73 57.987L69.657 52.467L56.124 44.904L40.548 53.604L26.343 61.554L39.876 69Z" fill="#EF382C"/>
</svg>
