<svg width="96" height="96" viewBox="0 0 96 96" fill="none" xmlns="http://www.w3.org/2000/svg">
<path fill-rule="evenodd" clip-rule="evenodd" d="M26.355 20.595C25.5602 20.5906 24.7683 20.6914 24 20.895V21H24.114C24.6649 21.8308 25.2787 22.6181 25.95 23.355C26.412 24.273 26.814 25.188 27.273 26.106L27.387 25.989C27.814 25.6514 28.1482 25.2108 28.3581 24.7086C28.5681 24.2064 28.6468 23.659 28.587 23.118C28.3341 22.7316 28.1037 22.3309 27.897 21.918C27.552 21.345 26.805 21.057 26.346 20.598" fill="#5D87A1"/>
<path fill-rule="evenodd" clip-rule="evenodd" d="M83.3401 70.659C79.5558 70.3933 75.7586 70.9416 72.2041 72.267C71.3431 72.612 69.9691 72.612 69.8491 73.701C70.3111 74.16 70.3651 74.901 70.7701 75.54C71.5574 76.8692 72.5671 78.0534 73.7551 79.041C74.9551 79.959 76.1551 80.874 77.4301 81.678C79.6651 83.061 82.1941 83.862 84.3721 85.239C85.6381 86.043 86.8981 87.075 88.1641 87.939C88.7941 88.398 89.1931 89.139 89.9971 89.439V89.265C89.7587 88.6284 89.4666 88.0132 89.1241 87.426C88.5511 86.856 87.9751 86.337 87.3991 85.764C85.7169 83.5383 83.7035 81.5836 81.4291 79.968C79.5901 78.702 75.5701 76.968 74.8291 74.868L74.7121 74.751C76.0577 74.5602 77.3838 74.251 78.6751 73.827C80.6251 73.311 82.4041 73.428 84.4111 72.927C85.3321 72.696 86.9971 72.123 86.9971 72.123V71.223C85.9711 70.203 85.2361 68.838 84.1561 67.875C81.2204 65.307 78.0889 62.9719 74.7901 60.891C73.0291 59.754 70.7581 59.022 68.8831 58.053C68.2051 57.711 67.0831 57.543 66.6721 56.973C65.7397 55.6048 64.9591 54.1392 64.3441 52.602C62.6661 49.3703 61.1139 46.0748 59.6911 42.723C58.8545 40.5108 57.8878 38.3501 56.7961 36.252C51.5325 27.3095 43.9393 19.9641 34.8271 15C32.5284 13.8842 30.083 13.1004 27.5641 12.672C26.1421 12.612 24.7261 12.501 23.3071 12.447C22.3937 11.8432 21.5226 11.1777 20.7001 10.455C17.4541 8.4 9.11408 3.984 6.72608 9.831C5.19608 13.524 9.00008 17.154 10.3051 19.029C11.4035 20.3526 12.3729 21.778 13.2001 23.286C13.5991 24.252 13.7131 25.275 14.1001 26.286C14.9358 28.8803 15.9246 31.4227 17.0611 33.9C17.6711 35.1235 18.3731 36.2989 19.1611 37.416C19.6201 38.043 20.4121 38.316 20.5831 39.351C19.9532 40.703 19.513 42.1355 19.2751 43.608C17.2736 49.9329 17.8661 56.7938 20.9221 62.682C21.8221 64.101 23.9881 67.224 26.8831 66.03C29.4361 65.01 28.8691 61.773 29.6071 58.938C29.7751 58.251 29.6641 57.801 30.0031 57.348V57.9C30.0031 57.9 31.4521 61.083 32.1721 62.7C34.1296 65.6674 36.5621 68.2925 39.3721 70.47C40.4843 71.4394 41.3798 72.6323 42.0001 73.971V75H43.2811C43.2552 74.5358 43.127 74.0832 42.9055 73.6744C42.684 73.2657 42.3748 72.9111 42.0001 72.636C40.9496 71.5548 39.9875 70.391 39.1231 69.156C36.7749 65.8116 34.704 62.2808 32.9311 58.599C32.0311 56.799 31.2721 54.825 30.5521 53.028C30.2221 52.335 30.2221 51.288 29.6671 50.928C28.6429 52.141 27.7537 53.4618 27.0151 54.867C26.1186 57.708 25.5972 60.6539 25.4641 63.63C25.2451 63.69 25.3531 63.63 25.2451 63.744C23.4781 63.279 22.8691 61.368 22.2031 59.748C20.4833 54.7515 20.3098 49.3526 21.7051 44.256C22.0891 43.041 23.7541 39.213 23.0881 38.052C22.7551 36.945 21.6481 36.312 21.0421 35.439C20.2716 34.2627 19.6061 33.0209 19.0531 31.728C17.7361 28.5 17.0701 24.9 15.6361 21.648C14.8423 20.084 13.918 18.5897 12.8731 17.181C11.7174 15.7737 10.6979 14.2599 9.82808 12.66C9.55208 12.021 9.16508 10.977 9.60608 10.281C9.63584 10.0877 9.72778 9.9093 9.86798 9.77289C10.0082 9.63648 10.189 9.54946 10.3831 9.525C11.0971 8.889 13.1461 9.699 13.8631 10.047C15.7901 10.8056 17.6257 11.7788 19.3351 12.948C20.1091 13.53 21.9331 15.003 21.9331 15.003H22.4731C24.3091 15.402 26.3731 15.114 28.1011 15.633C31.0099 16.6044 33.7863 17.9347 36.3661 19.593C43.9653 24.4406 50.1441 31.2156 54.2731 39.228C54.9631 40.545 55.2541 41.754 55.8841 43.128C57.0841 45.948 58.5841 48.828 59.7841 51.57C60.8432 54.2826 62.2123 56.8637 63.8641 59.262C64.7221 60.462 68.1691 61.098 69.7201 61.728C71.0665 62.1955 72.3882 62.7312 73.6801 63.333C75.6331 64.533 77.5801 65.916 79.4191 67.233C80.3341 67.923 83.2051 69.357 83.3791 70.506" fill="#00758F"/>
</svg>
