<svg width="96" height="96" viewBox="0 0 96 96" fill="none" xmlns="http://www.w3.org/2000/svg">
<path d="M48 90C71.196 90 90 71.196 90 48C90 24.804 71.196 6 48 6C24.804 6 6 24.804 6 48C6 71.196 24.804 90 48 90Z" fill="black"/>
<path d="M75.78 79.5L38.28 31.2H31.2V64.8H36.87V38.4L71.34 82.92C72.9 81.87 74.34 80.76 75.78 79.53V79.5Z" fill="url(#paint0_linear_1486_95)"/>
<path d="M59.6699 31.2H65.2499V64.8H59.6999L59.6699 31.2Z" fill="url(#paint1_linear_1486_95)"/>
<defs>
<linearGradient id="paint0_linear_1486_95" x1="31.2765" y1="83.0325" x2="44.1465" y2="104.499" gradientUnits="userSpaceOnUse">
<stop stop-color="white"/>
<stop offset="1" stop-color="white" stop-opacity="0"/>
</linearGradient>
<linearGradient id="paint1_linear_1486_95" x1="60.1514" y1="31.3875" x2="60.1514" y2="56.2035" gradientUnits="userSpaceOnUse">
<stop stop-color="white"/>
<stop offset="1" stop-color="white" stop-opacity="0"/>
</linearGradient>
</defs>
</svg>
