<svg width="96" height="96" viewBox="0 0 96 96" fill="none" xmlns="http://www.w3.org/2000/svg">
<path d="M47.9999 90C46.8667 90.0004 45.7534 89.7024 44.7719 89.136L34.4999 83.055C32.9669 82.197 33.7139 81.894 34.2209 81.717C35.8513 81.2133 37.4124 80.5078 38.8679 79.617C38.9897 79.5606 39.1239 79.5363 39.2578 79.5463C39.3917 79.5562 39.5208 79.6002 39.6329 79.674L47.5259 84.363C47.6729 84.4408 47.8366 84.4814 48.0029 84.4814C48.1692 84.4814 48.3329 84.4408 48.4799 84.363L79.2599 66.597C79.4039 66.5107 79.5231 66.3885 79.6057 66.2423C79.6882 66.0961 79.7314 65.9309 79.7309 65.763V30.225C79.731 30.0544 79.6872 29.8867 79.6036 29.738C79.5201 29.5893 79.3996 29.4646 79.2539 29.376L48.4739 11.625C48.3288 11.5432 48.165 11.5003 47.9984 11.5003C47.8318 11.5003 47.6681 11.5432 47.5229 11.625L16.7609 29.382C16.6142 29.4688 16.4923 29.592 16.4072 29.7397C16.322 29.8874 16.2765 30.0545 16.2749 30.225V65.748C16.2753 65.9155 16.3203 66.0799 16.4051 66.2244C16.49 66.3688 16.6118 66.4881 16.7579 66.57L25.1999 71.442C29.7749 73.728 32.5769 71.034 32.5769 68.328V33.255C32.5769 33.0163 32.6717 32.7874 32.8405 32.6186C33.0093 32.4498 33.2382 32.355 33.4769 32.355H37.3769C37.6156 32.355 37.8445 32.4498 38.0133 32.6186C38.1821 32.7874 38.2769 33.0163 38.2769 33.255V68.331C38.2769 74.436 34.9529 77.931 29.1629 77.931C26.665 77.9745 24.2063 77.3065 22.0739 76.005L13.9829 71.364C13.0007 70.792 12.1857 69.9724 11.6192 68.9869C11.0528 68.0014 10.7548 66.8846 10.7549 65.748V30.225C10.752 29.0866 11.0487 27.9675 11.6154 26.9801C12.182 25.9927 12.9985 25.1718 13.9829 24.6L44.7659 6.82799C45.7575 6.2855 46.8696 6.00116 47.9999 6.00116C49.1302 6.00116 50.2423 6.2855 51.2339 6.82799L82.0139 24.6C82.996 25.1709 83.8112 25.9894 84.3782 26.9737C84.9451 27.9581 85.244 29.074 85.2449 30.21V65.748C85.2432 66.8846 84.9441 68.001 84.3773 68.9863C83.8105 69.9715 82.9957 70.7912 82.0139 71.364L51.2339 89.136C50.2506 89.7033 49.1351 90.0013 47.9999 90V90Z" fill="#83CD29"/>
<path d="M42.1621 53.859C42.1621 53.6203 42.2569 53.3914 42.4257 53.2226C42.5945 53.0538 42.8234 52.959 43.0621 52.959H47.0431C47.2558 52.9597 47.4614 53.0357 47.6234 53.1735C47.7854 53.3114 47.8934 53.5021 47.9281 53.712C48.5281 57.765 50.3281 59.808 58.4671 59.808C64.9501 59.808 67.7131 58.341 67.7131 54.9C67.7131 52.917 66.9301 51.444 56.8531 50.457C48.4291 49.623 43.2211 47.757 43.2211 41.025C43.2211 34.815 48.4561 31.11 57.2311 31.11C67.0921 31.11 71.9731 34.533 72.5911 41.877C72.6005 41.9996 72.5848 42.1229 72.5447 42.2391C72.5047 42.3554 72.4412 42.4622 72.3583 42.553C72.2754 42.6438 72.1747 42.7167 72.0625 42.7671C71.9504 42.8174 71.8291 42.8443 71.7061 42.846H67.6981C67.497 42.8432 67.3027 42.7731 67.1461 42.647C66.9895 42.5208 66.8797 42.3459 66.8341 42.15C65.8771 37.887 63.5341 36.525 57.2341 36.525C50.1541 36.525 49.3321 38.991 49.3321 40.839C49.3321 43.077 50.3041 43.731 59.8621 44.994C69.3211 46.245 73.8151 48.015 73.8151 54.663C73.8151 61.371 68.2231 65.211 58.4701 65.211C44.9851 65.229 42.1621 59.046 42.1621 53.859V53.859Z" fill="#83CD29"/>
</svg>
