<svg width="92" height="92" viewBox="0 0 92 92" fill="none" xmlns="http://www.w3.org/2000/svg">
<g clip-path="url(#clip0_1516_95)">
<path d="M17.0928 16.1307C19.9525 18.4537 21.0258 18.2773 26.4002 17.917L77.0577 14.8772C78.131 14.8772 77.2378 13.8038 76.8813 13.6275L68.4633 7.544C66.8533 6.29433 64.7028 4.86066 60.5858 5.21716L11.5383 8.7975C9.75201 8.97383 9.39168 9.87083 10.1047 10.5838L17.0928 16.1307ZM20.1327 27.9373V81.236C20.1327 84.0995 21.5625 85.1728 24.7863 84.9927L80.4578 81.7727C83.6817 81.5963 84.042 79.626 84.042 77.2992V24.357C84.042 22.034 83.1488 20.7805 81.1747 20.9568L22.9962 24.357C20.8495 24.5372 20.1327 25.6143 20.1327 27.9373ZM75.0912 30.7932C75.4477 32.4032 75.0912 34.0132 73.4812 34.1972L70.7978 34.7338V74.0792C68.4672 75.3327 66.3205 76.0495 64.5303 76.0495C61.663 76.0495 60.9462 75.1525 58.7995 72.473L41.2543 44.9267V71.576L46.805 72.8333C46.805 72.8333 46.805 76.0533 42.3277 76.0533L29.9767 76.7663C29.6202 76.0533 29.9767 74.2632 31.2302 73.9067L34.4502 73.0135V37.7737L29.9843 37.4133C29.624 35.8033 30.521 33.4803 33.0242 33.3002L46.2722 32.407L64.5342 60.3098V35.6232L59.8767 35.0903C59.5202 33.12 60.95 31.6902 62.7402 31.5138L75.0912 30.7932ZM7.42135 3.96749L58.443 0.210828C64.7067 -0.325838 66.3205 0.0306618 70.2573 2.89416L86.5452 14.3405C89.2285 16.307 90.1255 16.8437 90.1255 18.9903V81.7727C90.1255 85.7057 88.6957 88.0363 83.6855 88.389L24.4298 91.9693C20.6732 92.1495 18.8792 91.6128 16.9088 89.1058L4.91435 73.5425C2.76768 70.679 1.87451 68.5362 1.87451 66.0292V10.2235C1.87451 7.00733 3.30818 4.32016 7.42135 3.96749Z" fill="black"/>
</g>
<defs>
<clipPath id="clip0_1516_95">
<rect width="92" height="92" fill="white"/>
</clipPath>
</defs>
</svg>
