<svg width="96" height="96" viewBox="0 0 96 96" fill="none" xmlns="http://www.w3.org/2000/svg">
<path d="M88.5212 56.319C88.2672 55.5821 87.8104 54.9318 87.2032 54.443C86.5961 53.9542 85.8633 53.6468 85.0892 53.556C84.1743 53.4448 83.247 53.4966 82.3502 53.709C80.9634 54.0185 79.5518 54.2042 78.1322 54.264C81.9321 47.8624 84.8314 40.9675 86.7482 33.774C89.6072 22.707 88.0802 17.667 86.2952 15.384C83.9246 12.3852 80.8908 9.97708 77.4323 8.34882C73.9738 6.72057 70.1849 5.91656 66.3632 6C62.8573 5.96836 59.3662 6.4577 56.0042 7.452C54.0016 7.11045 51.9755 6.92589 49.9442 6.9C46.2519 6.76062 42.5948 7.6619 39.3902 9.501C36.9602 8.67887 34.4682 8.05287 31.9382 7.629C25.9818 6.20212 19.7026 7.1992 14.4812 10.401C9.27917 14.073 6.86717 20.457 7.31417 29.376C8.11533 36.0296 9.52729 42.5953 11.5322 48.99C12.6876 52.9841 14.208 56.8634 16.0742 60.579C17.4562 63.966 20.0755 66.7001 23.4002 68.226C24.6197 68.6278 25.9246 68.6962 27.1795 68.424C28.4344 68.1518 29.5937 67.549 30.5372 66.678C30.9661 67.1843 31.4723 67.6197 32.0372 67.968C32.9129 68.5131 33.8684 68.918 34.8692 69.168C38.1435 70.0798 41.6289 69.8685 44.7692 68.568C44.7872 69.081 44.8022 69.573 44.8112 69.999C44.8292 70.686 44.8502 71.361 44.8742 71.994C44.8368 75.3404 45.2824 78.6748 46.1972 81.894C46.2452 82.023 46.3082 82.215 46.3742 82.422C46.9042 84.3913 47.9274 86.193 49.3472 87.657C51.0534 89.2216 53.3032 90.058 55.6172 89.988C56.6029 89.9818 57.5853 89.8722 58.5482 89.661C60.3731 89.4305 62.1336 88.8375 63.726 87.9169C65.3185 86.9962 66.7108 85.7665 67.8212 84.3C70.2542 80.835 71.4392 75.618 71.6522 67.395L71.7302 66.729L71.7812 66.294L72.3542 66.345H72.5012C75.7451 66.4789 78.9803 65.9184 81.9902 64.701C83.8832 63.822 89.9522 60.618 88.5212 56.301" fill="black"/>
<path d="M83.067 57.159C73.578 59.115 72.927 55.905 72.927 55.905C82.944 41.04 87.132 22.17 83.517 17.553C73.659 4.953 56.592 10.914 56.307 11.067L56.214 11.085C54.1294 10.667 52.01 10.446 49.884 10.425C46.2983 10.2421 42.7592 11.3017 39.864 13.425C39.864 13.425 9.41999 0.882001 10.836 29.199C11.136 35.223 19.47 74.781 29.409 62.832C33.042 58.464 36.552 54.768 36.552 54.768C38.3196 55.9614 40.4467 56.5042 42.57 56.304L42.741 56.16C42.6905 56.7276 42.7137 57.2994 42.81 57.861C40.248 60.723 41.01 61.224 35.883 62.277C30.705 63.345 33.747 65.244 35.733 65.742C37.8431 66.4236 40.1146 66.4217 42.2236 65.7365C44.3326 65.0513 46.1715 63.7177 47.478 61.926L47.328 62.526C48.33 63.33 49.035 67.752 48.918 71.763C48.592 74.7462 48.7951 77.7635 49.518 80.676C50.31 82.827 51.096 87.663 57.825 86.223C60.2171 85.9848 62.4416 84.8869 64.0856 83.133C65.7297 81.3792 66.6817 79.0885 66.765 76.686C67.065 72.984 67.704 73.53 67.743 70.221L68.265 68.655C68.865 63.636 68.361 62.016 71.823 62.769L72.666 62.844C75.3445 62.9565 78.0168 62.5069 80.511 61.524C84.729 59.568 87.228 56.298 83.07 57.159" fill="#336791"/>
<path d="M41.6462 31.893C40.958 31.7479 40.2406 31.8544 39.6242 32.193C39.5442 32.2512 39.4766 32.3246 39.4251 32.409C39.3736 32.4935 39.3393 32.5873 39.3242 32.685C39.3243 33.031 39.4489 33.3654 39.6752 33.627C40.0775 34.18 40.6787 34.5554 41.3522 34.674C41.4419 34.6841 41.532 34.6901 41.6222 34.692C42.0679 34.6978 42.5046 34.5665 42.8733 34.3159C43.2419 34.0654 43.5246 33.7076 43.6832 33.291C43.7882 32.547 42.7052 32.049 41.6552 31.902M69.9812 31.926C69.9002 31.341 68.8592 31.176 67.8812 31.326C66.9032 31.476 65.9402 31.908 66.0212 32.493C66.1747 32.8593 66.4334 33.1719 66.7644 33.3913C67.0954 33.6108 67.4841 33.7272 67.8812 33.726L68.1302 33.708C68.6505 33.6166 69.126 33.3562 69.4832 32.967C69.7819 32.7047 69.9642 32.3346 69.9902 31.938" fill="white"/>
<path d="M86.2232 56.937C85.8602 55.842 84.6962 55.491 82.7612 55.89C77.0162 57.09 74.9612 56.253 74.2832 55.758C78.8338 48.775 82.2491 41.115 84.4022 33.063C85.2735 29.878 85.7768 26.6037 85.9022 23.304C86.1364 20.9957 85.5994 18.6749 84.3752 16.704C82.2134 13.9825 79.4489 11.8003 76.2997 10.3296C73.1505 8.85889 69.7028 8.13979 66.2282 8.22901C62.6594 8.17537 59.1079 8.73449 55.7282 9.88201C53.7956 9.40469 51.8147 9.15003 49.8242 9.12301C46.2435 8.96893 42.7048 9.94384 39.7082 11.91C37.0423 10.9343 34.29 10.2131 31.4882 9.75601C26.1327 8.46065 20.4823 9.32835 15.7622 12.171C11.2622 15.363 9.16222 21.069 9.57922 29.13C10.3674 35.5905 11.7462 41.9652 13.6982 48.174C16.9082 58.689 20.3972 64.644 24.0692 65.874C24.5445 66.0313 25.0416 66.1133 25.5422 66.117C26.4743 66.0591 27.381 65.7896 28.1934 65.3291C29.0059 64.8685 29.7028 64.229 30.2312 63.459C32.3152 60.959 34.4702 58.521 36.6962 56.145C38.1284 56.9166 39.7202 57.3449 41.3462 57.396V57.522C41.0662 57.854 40.7932 58.192 40.5272 58.536C39.4022 59.961 39.1712 60.258 35.5532 61.005C34.5242 61.218 31.7912 61.782 31.7522 63.705C31.7102 65.805 34.9832 66.678 35.3522 66.771C36.5757 67.0903 37.8347 67.2536 39.0992 67.257C41.8643 67.3092 44.5457 66.3075 46.5992 64.455C46.2932 70.1643 46.677 75.8896 47.7422 81.507C48.2348 83.3053 49.3009 84.8937 50.7786 86.0308C52.2562 87.1679 54.0647 87.7916 55.9292 87.807C56.8542 87.8037 57.7763 87.7031 58.6802 87.507C61.1487 87.2951 63.4599 86.2072 65.1963 84.44C66.9327 82.6728 67.9797 80.3428 68.1482 77.871C68.6792 74.793 69.5912 67.446 70.0202 63.504C71.1047 63.8003 72.2262 63.9387 73.3502 63.915C75.9391 63.9337 78.5066 63.4445 80.9072 62.475C83.0432 61.482 86.9072 59.052 86.1962 56.937H86.2232ZM72.1532 30.3C72.1145 31.4138 71.9982 32.5234 71.8052 33.621C71.5803 34.9105 71.44 36.2132 71.3852 37.521C71.3766 38.9964 71.4769 40.4704 71.6852 41.931C72.3326 44.9203 72.0938 48.0334 70.9982 50.889C70.7662 50.4757 70.5588 50.0489 70.3772 49.611C70.2032 49.188 69.8222 48.507 69.3002 47.568C67.2602 43.908 62.4782 35.334 64.9262 31.836C65.6552 30.795 67.5062 29.736 72.1502 30.3H72.1532ZM66.5222 10.593C69.5929 10.5309 72.6362 11.1819 75.4127 12.4947C78.1893 13.8075 80.6236 15.7464 82.5242 18.159C85.4492 21.894 82.2242 38.895 72.9092 53.559L72.6272 53.202L72.5102 53.055C74.3619 49.5584 74.9004 45.5143 74.0282 41.655C73.8264 40.3125 73.7261 38.9566 73.7282 37.599C73.7859 36.3862 73.9171 35.1779 74.1212 33.981C74.3914 32.5038 74.515 31.0035 74.4902 29.502C74.5402 29.2959 74.5534 29.0827 74.5292 28.872C73.533 24.8557 71.563 21.1465 68.7932 18.072C66.3034 15.1365 63.1883 12.7953 59.6762 11.22C61.9253 10.7524 64.2195 10.5371 66.5162 10.578L66.5222 10.593ZM28.4372 61.962C26.5562 64.224 25.2542 63.792 24.8372 63.648C22.0532 62.718 18.8192 56.832 15.9722 47.496C14.0792 41.4705 12.7338 35.2864 11.9522 29.019C11.5922 21.819 13.3382 16.797 17.1422 14.097C23.3312 9.70801 33.5102 12.336 37.5992 13.668L37.4222 13.839C30.7112 20.616 30.8702 32.196 30.8882 32.904C30.8882 33.177 30.9092 33.564 30.9422 34.104C31.1876 37.33 31.1062 40.5724 30.6992 43.782C30.4203 45.6197 30.5636 47.4968 31.1182 49.2709C31.6729 51.045 32.6243 52.6694 33.9002 54.021C34.1662 54.297 34.4442 54.559 34.7342 54.807C32.567 57.1319 30.4661 59.5179 28.4342 61.962H28.4372ZM35.6072 52.392C34.5726 51.2982 33.8011 49.9828 33.3515 48.5459C32.9018 47.109 32.7858 45.5885 33.0122 44.1C33.4422 40.7366 33.5297 37.3381 33.2732 33.957L33.2312 33.228C35.7443 31.334 38.8629 30.4239 42.0002 30.669C42.7216 30.8334 43.3742 31.2179 43.8675 31.7693C44.3609 32.3207 44.6707 33.0118 44.7542 33.747C46.6922 42.714 45.0092 46.449 43.6592 49.452C43.3802 50.07 43.1162 50.652 42.8942 51.252L42.7202 51.72C42.2877 52.8065 41.9191 53.9174 41.6162 55.047C40.4887 55.0289 39.3764 54.784 38.3456 54.3268C37.3147 53.8696 36.3865 53.2096 35.6162 52.386L35.6072 52.392ZM35.9462 64.482C35.389 64.3468 34.8586 64.1186 34.3772 63.807C34.9139 63.5791 35.4744 63.412 36.0482 63.309C40.3022 62.433 40.9592 61.809 42.3962 59.994C42.7262 59.577 43.0982 59.094 43.6142 58.527C44.3822 57.666 44.7362 57.813 45.3722 58.077C45.6738 58.241 45.9382 58.4655 46.1488 58.7366C46.3595 59.0076 46.5118 59.3193 46.5962 59.652C46.6771 59.8941 46.7056 60.1507 46.6797 60.4046C46.6538 60.6586 46.5742 60.9042 46.4462 61.125C45.2833 62.7309 43.6375 63.9231 41.7491 64.5275C39.8607 65.132 37.8285 65.1171 35.9492 64.485L35.9462 64.482ZM58.2182 85.2C57.3763 85.4927 56.4821 85.6046 55.594 85.5283C54.7059 85.452 53.8439 85.1893 53.0642 84.7573C52.2845 84.3252 51.6047 83.7336 51.0692 83.0211C50.5337 82.3085 50.1544 81.4911 49.9562 80.622C48.8966 73.8234 48.5948 66.9282 49.0562 60.063C49.0588 59.9371 49.0416 59.8116 49.0052 59.691C48.9708 59.4584 48.9227 59.228 48.8612 59.001C48.6833 58.3263 48.3595 57.6988 47.9127 57.1628C47.4659 56.6269 46.9069 56.1954 46.2752 55.899C45.5398 55.5301 44.7002 55.4242 43.8962 55.599C44.1829 54.5593 44.5254 53.5358 44.9222 52.533L45.0962 52.062C45.2942 51.531 45.5402 50.982 45.8012 50.4C47.2142 47.259 49.1522 42.954 47.0492 33.234C46.9161 32.4072 46.6151 31.6164 46.1647 30.9104C45.7142 30.2044 45.1239 29.5982 44.4302 29.129C43.7365 28.6599 42.9541 28.3378 42.1311 28.1827C41.3081 28.0276 40.4621 28.0427 39.6452 28.227C37.6693 28.4837 35.7535 29.0837 33.9842 30C33.7502 30.12 33.5342 30.235 33.3362 30.345C33.5622 24.8937 35.5853 19.6703 39.0902 15.489C40.4965 14.11 42.176 13.0408 44.0207 12.3505C45.8653 11.6602 47.8341 11.364 49.8002 11.481C53.1213 11.5105 56.3954 12.268 59.3919 13.7001C62.3885 15.1323 65.0344 17.2043 67.1432 19.77C69.1995 22.1738 70.8071 24.9276 71.8892 27.9C67.5002 27.453 64.5152 28.32 63.0032 30.483C59.7032 35.187 64.8032 44.319 67.2512 48.708C67.7012 49.512 68.0882 50.208 68.2082 50.508C68.8534 52.0179 69.7243 53.4209 70.7912 54.669C71.0222 54.969 71.2472 55.236 71.4152 55.482C70.0862 55.866 67.6982 56.751 67.9172 61.182C67.7432 63.402 66.4952 73.797 65.8592 77.472C65.0222 82.323 63.2372 84.132 58.2152 85.209L58.2182 85.2ZM79.9442 60.336C78.0976 61.0695 76.1373 61.4756 74.1512 61.536C72.8299 61.7341 71.4796 61.5606 70.2512 61.035C70.1162 58.278 71.1512 57.99 72.2312 57.684C72.4012 57.638 72.5672 57.588 72.7292 57.534C72.8336 57.6214 72.9439 57.7016 73.0592 57.774C74.9762 59.04 78.3992 59.175 83.2292 58.179H83.2832C82.2858 59.0681 81.1564 59.7967 79.9352 60.339L79.9442 60.336Z" fill="white"/>
</svg>
