<svg width="96" height="96" viewBox="0 0 96 96" fill="none" xmlns="http://www.w3.org/2000/svg">
<path d="M48 70.095C71.196 70.095 90 60.2027 90 48C90 35.7973 71.196 25.905 48 25.905C24.804 25.905 6 35.7973 6 48C6 60.2027 24.804 70.095 48 70.095Z" fill="url(#paint0_radial_1487_104)"/>
<path d="M48.0001 68.454C70.2898 68.454 88.3591 59.2964 88.3591 48C88.3591 36.7036 70.2898 27.546 48.0001 27.546C25.7105 27.546 7.64111 36.7036 7.64111 48C7.64111 59.2964 25.7105 68.454 48.0001 68.454Z" fill="#6280B6"/>
<path d="M56.1751 54.6L58.1761 44.298C58.4618 43.4164 58.509 42.4749 58.313 41.5691C58.117 40.6634 57.6847 39.8256 57.0601 39.141C55.318 37.9043 53.185 37.3444 51.0601 37.566H47.6011L48.5941 32.466C48.6116 32.3711 48.6082 32.2735 48.5839 32.1801C48.5597 32.0867 48.5152 31.9998 48.4537 31.9254C48.3922 31.851 48.3152 31.791 48.228 31.7497C48.1408 31.7083 48.0456 31.6866 47.9491 31.686H43.1491C42.9968 31.6865 42.8494 31.7397 42.7319 31.8365C42.6143 31.9332 42.5339 32.0677 42.5041 32.217L40.3771 43.155C40.2136 41.9855 39.7168 40.8878 38.9461 39.993C38.0885 39.1333 37.0536 38.4713 35.9136 38.0531C34.7737 37.6349 33.5561 37.4708 32.3461 37.572H23.1001C22.9478 37.5725 22.8004 37.6257 22.6829 37.7225C22.5653 37.8192 22.4849 37.9537 22.4551 38.103L18.1531 60.243C18.1355 60.3379 18.139 60.4355 18.1633 60.5289C18.1875 60.6223 18.232 60.7092 18.2935 60.7836C18.355 60.858 18.432 60.918 18.5192 60.9593C18.6064 61.0007 18.7016 61.0224 18.7981 61.023H23.6071C23.7594 61.0225 23.9068 60.9693 24.0243 60.8726C24.1419 60.7758 24.2223 60.6413 24.2521 60.492L25.2931 55.137H28.8931C30.4825 55.1779 32.0688 54.9756 33.5971 54.537C34.8841 54.1079 36.0616 53.4024 37.0471 52.47C37.8544 51.7371 38.5427 50.8828 39.0871 49.938L38.2261 54.363C38.2085 54.4579 38.212 54.5555 38.2363 54.6489C38.2605 54.7423 38.305 54.8292 38.3665 54.9036C38.428 54.978 38.505 55.038 38.5922 55.0793C38.6794 55.1207 38.7746 55.1424 38.8711 55.143H43.6711C43.8234 55.1425 43.9708 55.0893 44.0883 54.9925C44.2059 54.8958 44.2863 54.7613 44.3161 54.612L46.6771 42.459H49.9591C51.3571 42.459 51.7591 42.738 51.8791 42.858C51.9991 42.978 52.1791 43.353 51.9541 44.565L50.0491 54.36C50.0315 54.4549 50.035 54.5525 50.0593 54.6459C50.0835 54.7393 50.128 54.8262 50.1895 54.9006C50.251 54.975 50.328 55.035 50.4152 55.0763C50.5024 55.1177 50.5976 55.1394 50.6941 55.14H55.5541C55.7035 55.1336 55.8462 55.0767 55.9591 54.9786C56.0719 54.8805 56.148 54.747 56.1751 54.6ZM33.9901 46.098C33.8431 47.3574 33.2453 48.5211 32.3071 49.374C31.1284 50.1074 29.7461 50.4448 28.3621 50.337H26.2261L27.7711 42.384H30.5341C32.5651 42.384 33.3811 42.819 33.7111 43.182C33.963 43.62 34.1182 44.1068 34.1664 44.6098C34.2145 45.1128 34.1544 45.6202 33.9901 46.098ZM76.6381 39.996C75.7805 39.1363 74.7456 38.4743 73.6056 38.0561C72.4657 37.6379 71.2481 37.4738 70.0381 37.575H60.7651C60.6128 37.5755 60.4654 37.6287 60.3479 37.7255C60.2303 37.8222 60.1499 37.9567 60.1201 38.106L55.8181 60.246C55.8005 60.3409 55.804 60.4385 55.8283 60.5319C55.8525 60.6253 55.897 60.7122 55.9585 60.7866C56.02 60.861 56.097 60.921 56.1842 60.9623C56.2714 61.0037 56.3666 61.0254 56.4631 61.026H61.2871C61.4394 61.0255 61.5868 60.9723 61.7043 60.8756C61.8219 60.7788 61.9023 60.6443 61.9321 60.495L62.9731 55.14H66.5731C68.1625 55.1809 69.7488 54.9786 71.2771 54.54C72.5641 54.1109 73.7416 53.4054 74.7271 52.473C76.4106 50.9543 77.5454 48.922 77.9551 46.692C78.2783 45.551 78.3275 44.3498 78.0987 43.1862C77.8698 42.0227 77.3694 40.9296 76.6381 39.996ZM71.6371 46.098C71.4901 47.3574 70.8923 48.5211 69.9541 49.374C68.7725 50.1083 67.3868 50.4447 66.0001 50.334H63.8701L65.4151 42.381H68.1781C70.2091 42.381 71.0251 42.816 71.3551 43.179C71.6079 43.6172 71.7639 44.1044 71.8126 44.6079C71.8612 45.1115 71.8014 45.6196 71.6371 46.098Z" fill="white"/>
<path d="M30.534 41.724C31.1812 41.6434 31.838 41.6914 32.4667 41.8654C33.0953 42.0394 33.6833 42.336 34.197 42.738C34.5281 43.2479 34.7393 43.8262 34.8147 44.4295C34.89 45.0328 34.8276 45.6453 34.632 46.221C34.4591 47.638 33.7741 48.943 32.706 49.89C31.4164 50.7208 29.892 51.1104 28.362 51H25.428L27.228 41.733L30.534 41.724ZM18.783 60.372H23.607L24.75 54.486H28.881C30.4013 54.5242 31.9187 54.331 33.381 53.913C34.5805 53.5169 35.677 52.859 36.591 51.987C38.1743 50.5649 39.2401 48.6569 39.621 46.563C39.9237 45.522 39.9769 44.4244 39.7762 43.359C39.5755 42.2936 39.1267 41.2905 38.466 40.431C37.669 39.6433 36.71 39.0388 35.6557 38.6596C34.6013 38.2803 33.477 38.1354 32.361 38.235H23.1L18.783 60.372ZM43.161 32.346H47.961L46.8 38.232H51.063C53.0209 38.0279 54.9876 38.5254 56.613 39.636C57.1503 40.2476 57.5176 40.9896 57.6781 41.7878C57.8387 42.5859 57.7869 43.4122 57.528 44.184L55.527 54.486H50.67L52.575 44.691C52.7068 44.317 52.7536 43.9183 52.7121 43.5239C52.6706 43.1296 52.5418 42.7494 52.335 42.411C51.6404 41.9131 50.7822 41.6985 49.935 41.811H46.11L43.644 54.495H38.844L43.161 32.346ZM68.181 41.724C68.8282 41.6434 69.485 41.6914 70.1137 41.8654C70.7423 42.0394 71.3303 42.336 71.844 42.738C72.1751 43.2479 72.3863 43.8262 72.4617 44.4295C72.537 45.0328 72.4746 45.6453 72.279 46.221C72.1061 47.638 71.4211 48.943 70.353 49.89C69.0609 50.7227 67.533 51.1124 66 51H63.066L64.866 41.733L68.181 41.724ZM56.43 60.372H61.254L62.397 54.486H66.528C68.0483 54.5242 69.5657 54.331 71.028 53.913C72.2275 53.5169 73.324 52.859 74.238 51.987C75.8213 50.5649 76.8871 48.6569 77.268 46.563C77.5707 45.522 77.6239 44.4244 77.4232 43.359C77.2225 42.2936 76.7737 41.2905 76.113 40.431C75.3161 39.6433 74.357 39.0388 73.3027 38.6596C72.2483 38.2803 71.124 38.1354 70.008 38.235H60.732L56.43 60.372Z" fill="#000004"/>
<defs>
<radialGradient id="paint0_radial_1487_104" cx="0" cy="0" r="1" gradientUnits="userSpaceOnUse" gradientTransform="translate(31.218 33.675) scale(55.152 55.152)">
<stop stop-color="white"/>
<stop offset="0.5" stop-color="#4C6B96"/>
<stop offset="1" stop-color="#231F20"/>
</radialGradient>
</defs>
</svg>
