<svg width="96" height="96" viewBox="0 0 96 96" fill="none" xmlns="http://www.w3.org/2000/svg">
<path d="M48 55.422C52.1421 55.422 55.5 52.0641 55.5 47.922C55.5 43.7799 52.1421 40.422 48 40.422C43.8579 40.422 40.5 43.7799 40.5 47.922C40.5 52.0641 43.8579 55.422 48 55.422Z" fill="#00D8FF"/>
<path d="M48 65.118C38.9854 65.3353 29.9935 64.1202 21.36 61.518C17.3719 60.2538 13.6522 58.2622 10.389 55.644C9.14336 54.75 8.10607 53.5969 7.34844 52.2639C6.5908 50.9309 6.13078 49.4497 6 47.922C6 42.963 11.448 38.103 20.574 34.923C29.4387 32.1076 38.6999 30.742 48 30.879C57.176 30.7521 66.3133 32.0931 75.066 34.851C78.9063 36.0769 82.4996 37.972 85.68 40.449C86.9026 41.3031 87.9231 42.4148 88.6695 43.706C89.4159 44.9972 89.87 46.4363 90 47.922C90 53.076 83.91 58.299 74.1 61.545C65.6338 64.0631 56.8315 65.2681 48 65.118ZM48 34.467C39.1025 34.3507 30.2431 35.6489 21.753 38.313C13.353 41.244 9.588 45.252 9.588 47.913C9.588 50.697 13.635 55.074 22.521 58.113C30.7801 60.5911 39.3798 61.7444 48 61.53C56.4492 61.6811 64.8718 60.5379 72.975 58.14C82.2 55.083 86.4 50.7 86.4 47.922C86.2481 46.9689 85.9005 46.0575 85.379 45.2453C84.8575 44.4331 84.1735 43.7378 83.37 43.203C80.525 41.0048 77.315 39.3251 73.887 38.241C65.5136 35.6142 56.7748 34.3402 48 34.467Z" fill="#00D8FF"/>
<path d="M30.9601 85.329C29.5606 85.361 28.1776 85.0214 26.9521 84.345C22.6561 81.867 21.1681 74.721 22.9711 65.226C24.9613 56.14 28.4056 47.4349 33.1711 39.447C37.6443 31.435 43.3695 24.1896 50.13 17.985C53.1104 15.2703 56.5474 13.104 60.2821 11.586C61.6336 10.9546 63.1073 10.6274 64.5991 10.6274C66.0908 10.6274 67.5645 10.9546 68.9161 11.586C73.3831 14.16 74.8621 22.044 72.7771 32.163C70.728 40.7568 67.373 48.9854 62.8291 56.562C58.5136 64.4796 52.9686 71.662 46.4011 77.841C43.3134 80.6633 39.7301 82.8898 35.8321 84.408C34.2719 84.9886 32.6245 85.3001 30.9601 85.329ZM36.2791 41.229C31.7337 48.8781 28.4326 57.2009 26.4991 65.886C24.8401 74.631 26.4331 79.89 28.7491 81.228C31.1491 82.617 36.975 81.3 44.049 75.12C50.3195 69.2012 55.6121 62.3259 59.7301 54.75C64.0829 47.5065 67.3011 39.6394 69.273 31.422C71.235 21.897 69.5401 16.065 67.1341 14.679C66.2322 14.334 65.2686 14.1796 64.3041 14.2256C63.3396 14.2715 62.395 14.5168 61.5301 14.946C58.2053 16.3184 55.1485 18.2662 52.5001 20.7C46.0414 26.6436 40.5727 33.5798 36.3001 41.247L36.2791 41.229Z" fill="#00D8FF"/>
<path d="M65.031 85.368C60.966 85.368 55.803 82.908 50.427 78.285C43.5488 72.0232 37.7269 64.6919 33.186 56.574C28.4793 48.6965 25.0622 40.1173 23.064 31.161C22.1995 27.2203 22.039 23.1576 22.59 19.161C22.7196 17.6789 23.1718 16.243 23.9149 14.9542C24.6581 13.6653 25.6742 12.5546 26.892 11.7C31.353 9.117 38.922 11.772 46.647 18.63C53.0688 24.6966 58.5222 31.7121 62.817 39.432C67.5212 47.1254 70.9742 55.5168 73.047 64.293C73.9504 68.3781 74.0897 72.5952 73.458 76.731C73.3083 78.2564 72.8302 79.7313 72.0565 81.0544C71.2829 82.3775 70.232 83.5175 68.976 84.396C67.77 85.0628 66.4088 85.3982 65.031 85.368ZM36.291 54.768C40.6475 62.5258 46.2088 69.5423 52.767 75.555C59.514 81.36 64.866 82.608 67.167 81.255C69.567 79.86 71.337 74.166 69.513 64.953C67.5152 56.5736 64.2032 48.5634 59.7 41.22C55.6015 33.8314 50.3963 27.1136 44.265 21.3C36.993 14.844 31.095 13.401 28.692 14.793C27.9435 15.402 27.3291 16.1594 26.8877 17.0175C26.4462 17.8756 26.1872 18.8159 26.127 19.779C25.6504 23.3433 25.8058 26.9637 26.586 30.474C28.5087 39.0389 31.7859 47.242 36.294 54.774L36.291 54.768Z" fill="#00D8FF"/>
</svg>
