<svg width="96" height="96" viewBox="0 0 96 96" fill="none" xmlns="http://www.w3.org/2000/svg">
<path d="M78.33 52.716C75.692 52.7195 73.0894 53.3227 70.719 54.48C69.9785 53.2475 69.4055 51.9218 69.015 50.538C68.7902 49.453 68.7385 48.3392 68.862 47.238C69.1198 46.0266 69.4525 44.8323 69.858 43.662C69.843 43.509 69.675 42.786 67.986 42.762C66.297 42.738 64.842 43.083 64.686 43.53C64.391 44.3459 64.1554 45.1821 63.981 46.032C62.5829 49.4804 60.8622 52.7891 58.842 55.914C57.7131 54.057 57.2477 51.8719 57.522 49.716C57.7798 48.5046 58.1125 47.3103 58.518 46.14C58.503 45.987 58.335 45.264 56.646 45.24C54.957 45.216 53.502 45.561 53.346 46.008C53.19 46.455 52.992 47.508 52.641 48.51C52.29 49.512 48.192 58.668 47.118 61.029C46.566 62.229 46.089 63.207 45.753 63.867C45.7377 63.9102 45.7176 63.9514 45.693 63.99L45.234 64.866V64.881C45.003 65.295 44.757 65.679 44.634 65.679C44.4179 64.8221 44.4283 63.9237 44.664 63.072C45.264 59.895 46.734 54.957 46.719 54.786C46.719 54.693 46.995 53.835 45.768 53.391C45.4832 53.2565 45.1639 53.2131 44.8535 53.2668C44.5432 53.3205 44.257 53.4686 44.034 53.691C43.926 53.691 43.851 53.952 43.851 53.952C43.851 53.952 45.186 48.399 41.304 48.399C39.7925 48.7039 38.3572 49.3075 37.0822 50.1746C35.8072 51.0416 34.7181 52.1545 33.879 53.448C32.835 54.015 30.612 55.227 28.233 56.532C27.333 57.039 26.391 57.546 25.518 58.032C25.458 57.972 25.395 57.894 25.335 57.834C20.61 52.8 11.925 49.248 12.3 42.513C12.438 40.059 13.281 33.615 28.977 25.788C41.895 19.422 52.176 21.186 53.955 25.098C56.502 30.684 48.447 41.055 35.1 42.558C33.6234 42.8578 32.0983 42.8218 30.6376 42.4525C29.1768 42.0833 27.8178 41.3904 26.661 40.425C25.956 39.657 25.848 39.612 25.587 39.765C25.158 39.996 25.434 40.686 25.587 41.085C26.0967 42.006 26.7855 42.8158 27.613 43.4665C28.4404 44.1172 29.3897 44.5958 30.405 44.874C35.6557 46.0087 41.1301 45.4662 46.056 43.323C54.156 40.194 60.456 31.494 58.608 24.207C56.751 16.812 44.478 14.373 32.862 18.507C25.5862 20.9552 18.8635 24.8115 13.077 29.856C6.67796 35.841 5.66696 41.04 6.08096 43.221C7.58096 50.955 18.234 55.986 22.497 59.721L21.915 60.042C19.782 61.101 11.652 65.352 9.61496 69.846C7.31396 74.946 9.98396 78.591 11.748 79.083C14.406 79.7211 17.197 79.5124 19.7305 78.4861C22.2641 77.4597 24.4134 75.6671 25.878 73.359C27.1273 71.4461 27.8953 69.2594 28.1163 66.9854C28.3372 64.7113 28.0047 62.4176 27.147 60.3C27.1329 60.2656 27.1126 60.234 27.087 60.207L28.758 59.226C29.7732 58.6256 30.8015 58.0475 31.842 57.492C31.2159 59.2929 30.8492 61.1738 30.753 63.078C30.5451 65.9958 31.4377 68.8857 33.255 71.178C33.532 71.4167 33.8536 71.5979 34.2012 71.7112C34.5489 71.8245 34.9155 71.8676 35.28 71.838C37.08 71.838 37.905 70.338 38.808 68.556C39.912 66.378 40.908 63.846 40.908 63.846C40.908 63.846 39.666 70.689 43.041 70.689C44.268 70.689 45.51 69.093 46.065 68.289V68.304L46.158 68.151L46.356 67.83V67.8C46.848 66.942 47.952 64.992 49.593 61.755C51.711 57.582 53.751 52.365 53.751 52.365C53.9487 53.5113 54.2202 54.6437 54.564 55.755C55.061 57.1006 55.6452 58.4124 56.313 59.682C55.821 60.372 55.515 60.756 55.515 60.756L55.53 60.771C55.131 61.293 54.702 61.86 54.225 62.412C52.8038 63.9706 51.487 65.6212 50.283 67.353C50.1038 67.6436 50.0422 67.9917 50.1107 68.3261C50.1793 68.6606 50.3729 68.9563 50.652 69.153C51.2824 69.4849 52.0033 69.6038 52.707 69.492C53.7669 69.4292 54.809 69.1909 55.791 68.787C56.7382 68.4515 57.6323 67.9817 58.446 67.392C59.2837 66.8117 59.958 66.0255 60.404 65.1093C60.8501 64.193 61.0529 63.1773 60.993 62.16C60.9 60.8783 60.5726 59.6245 60.027 58.461C60.179 58.247 60.327 58.032 60.471 57.816C62.1797 55.2721 63.7171 52.6173 65.073 49.869C65.2707 51.0153 65.5422 52.1477 65.886 53.259C66.2939 54.4227 66.7955 55.5514 67.386 56.634C65.4237 58.1435 63.8781 60.1279 62.895 62.4C61.929 65.193 62.679 66.45 64.095 66.741C64.87 66.7983 65.6458 66.6394 66.336 66.282C67.3526 65.9479 68.3103 65.4559 69.174 64.824C70.0839 64.2857 70.8461 63.5301 71.3922 62.6248C71.9383 61.7196 72.2512 60.693 72.303 59.637C72.2332 58.5829 71.9952 57.5468 71.598 56.568C74.1874 55.557 76.9947 55.2345 79.746 55.632C87.048 56.49 88.491 61.047 88.215 62.967C88.0852 63.6475 87.8113 64.2924 87.4119 64.8585C87.0125 65.4245 86.4966 65.8986 85.899 66.249C85.392 66.57 85.224 66.678 85.269 66.909C85.329 67.248 85.569 67.23 86.004 67.17C87.1045 66.828 88.0755 66.1603 88.7889 65.2552C89.5023 64.3501 89.9245 63.25 90 62.1C90.231 57.6 85.935 52.665 78.339 52.71L78.33 52.716ZM21.99 71.7C19.566 74.34 16.191 75.336 14.733 74.493C13.167 73.593 13.782 69.693 16.758 66.897C18.5246 65.3094 20.4325 63.8865 22.458 62.646C22.812 62.43 23.334 62.124 23.958 61.746L24.126 61.653L24.495 61.422C25.0276 63.2033 25.0763 65.0943 24.636 66.9007C24.1958 68.707 23.2825 70.3635 21.99 71.7ZM39.633 59.7C38.79 61.755 37.026 67.02 35.952 66.726C35.031 66.48 34.452 62.49 35.769 58.548C36.4343 56.6505 37.4028 54.8735 38.637 53.286C39.957 51.813 41.415 51.321 41.766 51.921C41.4485 54.6062 40.7295 57.2284 39.633 59.7ZM54.192 66.666C53.838 66.849 53.502 66.966 53.349 66.882C53.241 66.822 53.502 66.582 53.502 66.582C53.502 66.582 55.329 64.617 56.049 63.729C56.463 63.207 56.949 62.595 57.477 61.902V62.1C57.477 64.446 55.206 66.027 54.195 66.672L54.192 66.666ZM65.424 64.104C65.163 63.921 65.208 63.306 66.084 61.389C66.6925 60.1575 67.5435 59.0616 68.586 58.167C68.743 58.6218 68.826 59.0989 68.832 59.58C68.8423 60.6043 68.5141 61.6032 67.8984 62.4218C67.2826 63.2404 66.4139 63.8328 65.427 64.107L65.424 64.104Z" fill="#CD6799"/>
</svg>
